PathFileType	4	(X/Y/Z)	C:\Users\Basilio\Documents\Thesis Gigler\squatting_fais\c3dfiles\019\SLS_front_pre5\markers_experimental.trc
DataRate	CameraRate	NumFrames	NumMarkers	Units	OrigDataRate	OrigDataStartFrame	OrigNumFrames
200.000000	200.000000	4	59	mm	200.000000	191	1531
Frame#	Time	FHD			LBHD			RBHD			C7			T10			CLAV			LSHO			LUUPA			LMUPA			LDUPA			LLEP			LMEP			LRAD			LUL			LRFIN			RSHO			RUPA1			RMUPA			RDUPA			RLEP			RMEP			RRAD			RUL			RUFIN			LASI			RASI			USACR			LSACR			RSACR			LTHI1			LTHI2			LTHI3			LTHI4			LLFC			LTIB1			LTIB2			LTIB3			LTIB4			LLMAL			LMMAL			LHEE			LMT1			LMT2			LMT5			RTHI3			RTHI4			RLFC			RTIB1			RTIB2			RTIB3			RTIB4			RLMAL			RMMAL			RHEE			RMT1			RMT2			RMT5			RTHI			RTHI2			
		X1	Y1	Z1	X2	Y2	Z2	X3	Y3	Z3	X4	Y4	Z4	X5	Y5	Z5	X6	Y6	Z6	X7	Y7	Z7	X8	Y8	Z8	X9	Y9	Z9	X10	Y10	Z10	X11	Y11	Z11	X12	Y12	Z12	X13	Y13	Z13	X14	Y14	Z14	X15	Y15	Z15	X16	Y16	Z16	X17	Y17	Z17	X18	Y18	Z18	X19	Y19	Z19	X20	Y20	Z20	X21	Y21	Z21	X22	Y22	Z22	X23	Y23	Z23	X24	Y24	Z24	X25	Y25	Z25	X26	Y26	Z26	X27	Y27	Z27	X28	Y28	Z28	X29	Y29	Z29	X30	Y30	Z30	X31	Y31	Z31	X32	Y32	Z32	X33	Y33	Z33	X34	Y34	Z34	X35	Y35	Z35	X36	Y36	Z36	X37	Y37	Z37	X38	Y38	Z38	X39	Y39	Z39	X40	Y40	Z40	X41	Y41	Z41	X42	Y42	Z42	X43	Y43	Z43	X44	Y44	Z44	X45	Y45	Z45	X46	Y46	Z46	X47	Y47	Z47	X48	Y48	Z48	X49	Y49	Z49	X50	Y50	Z50	X51	Y51	Z51	X52	Y52	Z52	X53	Y53	Z53	X54	Y54	Z54	X55	Y55	Z55	X56	Y56	Z56	X57	Y57	Z57	X58	Y58	Z58	X59	Y59	Z59	

192	0.9550000000000001	-291.3215637207032	1725.728759765625	-708.7534179687501	-419.2271728515626	1688.945434570313	-851.4604492187502	-420.7031250000001	1680.030639648438	-711.5045776367189	-436.2469177246095	1504.505126953125	-778.7457275390627	-442.9478454589845	1211.354370117188	-776.2432250976565	-297.3624877929688	1470.036865234375	-782.2493896484377	-359.0496826171876	1512.584106445313	-919.352966308594	-229.1636047363282	1488.458740234375	-969.410339355469	-200.7422790527344	1482.185791015625	-923.925231933594	-162.7662811279297	1486.647216796875	-968.7048950195315	-90.51905059814455	1460.19384765625	-999.675720214844	-91.91463470458986	1401.459106445313	-987.932312011719	159.9205474853516	1456.027587890625	-915.0996704101565	153.4213409423828	1462.4443359375	-983.2479248046877	234.4737091064454	1460.449096679688	-915.8762817382815	-352.6496582031251	1504.387817382813	-652.2457885742189	-231.4992828369141	1439.3876953125	-549.1416015625001	-206.6346282958985	1468.283203125	-579.6499023437501	-162.3412628173828	1438.103881835938	-545.9638061523439	-86.43857574462892	1438.99072265625	-554.4992065429689	-93.86544036865236	1379.723266601563	-569.7310180664064	151.2067108154297	1465.960693359375	-636.2249755859376	160.6733703613282	1468.470703125	-570.5611572265626	236.7305450439454	1482.6171875	-633.9614257812501	-272.1170959472657	1017.841247558594	-897.5198364257815	-261.2084045410157	1010.976379394531	-685.2284545898439	-431.0058593750001	1080.898193359375	-779.6179199218752	-436.3522338867189	1048.706665039063	-807.0046997070315	-431.9007263183595	1049.003662109375	-749.3016357421876	-333.6740112304688	762.6554565429689	-981.2813720703127	-296.4913940429688	685.3828735351564	-984.6171875000002	-251.0242462158204	689.9593505859376	-968.5709228515627	-322.9458312988282	631.0439453125001	-975.9715576171877	-327.3882141113282	534.2960205078126	-970.0396728515627	-294.6973876953126	388.9339904785157	-946.1544189453127	-349.0252685546876	356.1723327636719	-1006.989990234375	-314.6093750000001	346.8804016113282	-981.4890747070315	-327.7643432617188	264.8200988769532	-954.0745239257815	-410.3897705078126	148.9481811523438	-993.7034912109377	-394.6053466796876	146.6214141845703	-913.774597167969	-483.3758544921876	119.7806549072266	-952.306091308594	-272.6645507812501	62.83168029785158	-922.1409912109377	-269.2793884277344	62.90755081176759	-963.4226074218752	-313.6509399414063	51.714900970459	-1020.891906738281	-239.9168243408204	761.2147216796876	-649.8061523437501	-293.5572509765626	676.5589599609376	-625.6923217773439	-335.7126159667969	518.2264404296876	-661.3825683593751	-300.5973815917969	338.3112487792969	-725.5943603515626	-354.1910095214844	257.2819824218751	-670.8876342773439	-321.5622863769532	255.9544982910157	-704.4932861328126	-332.0700073242188	215.8677673339844	-746.9006347656251	-393.3699645996095	130.3912506103516	-705.2093505859376	-376.6762084960938	136.7257843017578	-779.0806274414065	-456.8062133789064	106.8993606567383	-755.5571899414064	-257.7366027832032	55.77218627929689	-776.1876220703127	-250.0961456298829	54.87388610839845	-734.6743164062501	-294.7713012695313	51.21438217163087	-677.0967407226564	-303.5953369140626	807.5305786132815	-618.1405639648439	-263.7684936523438	758.0252685546876	-625.4790649414064	
193	0.96	-291.3304748535157	1725.8115234375	-708.8065795898439	-418.9910583496095	1688.986450195313	-851.5655517578127	-420.5580444335939	1679.527465820313	-711.7847290039064	-436.306121826172	1504.498168945313	-778.8264770507815	-442.8545532226564	1211.3310546875	-776.2881469726565	-297.2648010253907	1470.066528320313	-782.3153076171877	-359.0252380371094	1512.586303710938	-919.4556884765627	-229.1279754638672	1488.431884765625	-969.4923095703127	-200.665267944336	1482.147338867188	-923.949401855469	-162.6529998779297	1486.552124023438	-968.731628417969	-90.43663787841798	1460.13427734375	-999.7415771484377	-91.87030029296876	1401.409057617188	-988.0072021484377	159.9051208496094	1456.035766601563	-915.207946777344	153.46435546875	1462.381591796875	-983.4314575195315	234.593734741211	1460.33740234375	-915.9055786132815	-352.7299804687501	1504.433227539063	-652.4142456054689	-231.4795684814454	1439.421752929688	-549.1625366210939	-206.5982360839844	1468.360473632813	-579.5957031250001	-162.2696228027344	1438.104736328125	-545.9997558593751	-86.43209838867189	1438.984619140625	-554.4930419921876	-93.81858062744142	1379.727783203125	-569.7314453125001	151.3016204833985	1465.930908203125	-636.2111206054689	160.7379150390625	1468.42724609375	-570.5316162109376	236.7669525146485	1482.49365234375	-634.0013427734376	-272.1227111816407	1017.81689453125	-897.526306152344	-261.2006225585938	1010.948181152344	-685.2265014648439	-430.8788452148439	1080.892944335938	-779.6093750000002	-436.1914062500001	1048.660034179688	-806.9754028320315	-431.9231567382814	1049.010986328125	-749.2887573242189	-333.6401977539063	762.6511230468751	-981.2566528320315	-296.4513549804688	685.3567504882814	-984.5991210937502	-250.9852600097657	689.9891357421876	-968.5875244140627	-322.8773803710938	631.0347900390626	-975.9403076171877	-327.3016357421876	534.2613525390626	-970.0105590820315	-294.7112731933594	388.8707580566407	-946.169616699219	-349.0280151367188	356.0812683105469	-1006.969116210938	-314.6056213378907	346.8769531250001	-981.4488525390627	-327.7113342285157	264.7980041503907	-954.058532714844	-410.3606262207032	148.9416809082032	-993.7197265625002	-394.5938415527345	146.6108703613282	-913.7781982421877	-483.3914489746095	119.8594970703125	-952.295837402344	-272.7063598632813	62.7680015563965	-922.1482543945315	-269.3123779296876	62.8710403442383	-963.4084472656252	-313.7160949707032	51.72187423706056	-1020.837890625	-239.9267883300782	761.2079467773439	-649.8073730468751	-293.7215270996094	676.2985229492189	-625.5372924804689	-335.7138977050782	518.1962890625001	-661.3471679687501	-300.6642150878907	338.2906188964844	-725.6696777343751	-354.2225341796876	257.3625183105469	-670.8838500976564	-321.6373901367188	256.0213623046876	-704.4558715820314	-332.0957946777344	215.8480377197266	-746.8914794921876	-393.3843383789064	130.4056854248047	-705.2180786132814	-376.7755737304688	136.7835235595703	-779.0942382812502	-456.7850646972657	106.8885879516602	-755.5287475585939	-257.7360229492188	55.79785156250001	-776.2261352539065	-250.0386810302735	54.84050750732423	-734.6127929687501	-294.7401428222657	51.22070693969728	-677.1312866210939	-303.5910034179688	807.5190429687502	-618.1369628906251	-263.8125305175782	757.9489746093751	-625.4322509765626	
194	0.965	-291.3234558105469	1725.64501953125	-708.7312011718751	-418.749481201172	1689.02734375	-851.7656250000002	-420.5066528320314	1679.577392578125	-711.8861083984376	-436.0877075195314	1504.537963867188	-778.8835449218752	-442.8485107421876	1211.34375	-776.2910156250002	-297.2613220214844	1470.075805664063	-782.3475341796877	-358.8812255859376	1512.492431640625	-919.4550781250002	-229.0863342285157	1488.384155273438	-969.5682373046877	-200.5050964355469	1482.135131835938	-923.9538574218752	-162.5278930664063	1486.458251953125	-968.768005371094	-90.34350585937501	1460.093872070313	-999.8239746093752	-91.78420257568361	1401.357788085938	-988.0561523437502	160.0694732666016	1455.905395507813	-915.2183227539065	153.7974853515625	1462.38134765625	-983.4060058593752	234.6495056152344	1460.289794921875	-915.9869384765627	-352.5734252929688	1504.3798828125	-652.3829345703126	-231.3957519531251	1439.421508789063	-549.2198486328126	-206.6212005615235	1468.325439453125	-579.6671752929689	-162.2680816650391	1438.122314453125	-545.9857788085939	-86.44143676757814	1439.01513671875	-554.4893798828126	-93.82651519775392	1379.728149414063	-569.6561889648439	151.2404327392578	1465.815673828125	-636.1618041992189	160.8197784423828	1468.411254882813	-570.5120239257814	236.6936035156251	1482.414916992188	-633.9719238281251	-272.1833190917969	1017.762512207031	-897.471130371094	-261.2071533203126	1011.023193359375	-685.2362060546876	-430.9507446289064	1080.903076171875	-779.568054199219	-436.2952575683595	1048.673095703125	-806.9446411132815	-431.898651123047	1049.053955078125	-749.2870483398439	-333.6405639648438	762.6268310546876	-981.2510986328127	-296.4289245605469	685.3748779296876	-984.6126708984377	-250.9153442382813	689.9315185546876	-968.5662841796877	-322.8690490722657	631.0570678710939	-975.9666748046877	-327.2050170898438	534.2701416015626	-969.966247558594	-294.5458374023438	388.9339599609376	-946.1248168945315	-348.9866943359376	356.0567321777344	-1006.981384277344	-314.5544738769532	346.9216308593751	-981.4110107421877	-327.6603393554688	264.8093566894532	-954.0473632812502	-410.4638977050782	149.0516357421875	-993.760192871094	-394.6255493164064	146.6422271728516	-913.789733886719	-483.400115966797	119.8138122558594	-952.225769042969	-272.7123107910157	62.77084350585939	-922.1385498046877	-269.3063659667969	62.88608551025392	-963.4477539062502	-313.7467651367188	51.72531509399415	-1020.913940429688	-239.9064636230469	761.1669311523439	-649.7764892578126	-293.1540832519532	676.9428100585939	-626.2290039062501	-335.7225646972657	518.2571411132814	-661.3194580078126	-300.6884460449219	338.3109741210938	-725.6411743164064	-354.2369995117188	257.3225097656251	-670.8834838867189	-321.6406555175782	256.0256652832032	-704.4552612304689	-332.1716308593751	215.8477478027344	-746.8427734375001	-393.3862915039064	130.3849029541016	-705.2178955078126	-376.7849426269532	136.7842102050782	-779.111511230469	-456.8023681640626	106.8969192504883	-755.5559082031251	-257.7722167968751	55.80359649658205	-776.2542114257815	-250.103988647461	54.87892913818361	-734.6824951171876	-294.8049011230469	51.28858947753908	-677.1296386718751	-303.5903930664063	807.519226074219	-618.1358032226564	-263.6557922363282	758.1158447265626	-625.6200561523439	
195	0.97	-291.3298034667969	1725.702270507813	-708.7429199218751	-418.484832763672	1689.041625976563	-851.7819824218752	-420.4951171875001	1679.503662109375	-712.0085449218751	-436.2288513183595	1504.496215820313	-778.9501953125002	-442.7816467285157	1211.329345703125	-776.272155761719	-297.1977844238282	1470.063110351563	-782.3933105468752	-358.1808166503907	1512.359130859375	-918.9414672851565	-228.7856140136719	1488.44921875	-969.899108886719	-200.6148834228516	1482.068237304688	-924.0582275390627	-161.6377868652344	1486.200805664063	-968.1101684570315	-90.32939910888673	1459.984741210938	-999.8474121093752	-91.70618438720705	1401.284790039063	-988.0789794921877	160.140625	1455.890747070313	-915.275085449219	153.7426147460938	1462.26318359375	-983.5681762695315	234.7917022705079	1460.216430664063	-916.0109863281252	-352.4949951171876	1504.476806640625	-652.4252929687501	-231.3214263916016	1439.425903320313	-549.1967163085939	-206.6474609375001	1468.427001953125	-579.6441040039064	-162.2717895507813	1438.141479492188	-545.9847412109376	-86.37009429931642	1439.011962890625	-554.5182495117189	-93.74495697021486	1379.7255859375	-569.7261352539064	151.3630676269532	1465.773193359375	-636.0700683593751	160.8255157470703	1468.36181640625	-570.4668579101564	236.879135131836	1482.346435546875	-633.8347778320314	-272.1925659179688	1017.769165039063	-897.475036621094	-261.1019897460938	1011.045532226563	-685.1629638671876	-430.8810119628907	1080.889892578125	-779.611022949219	-436.3265380859376	1048.7509765625	-806.9346313476565	-431.8055725097657	1049.024536132813	-749.2326049804689	-333.6524047851563	762.5734252929689	-981.2277832031252	-296.3375549316407	685.2902221679689	-984.5655517578127	-250.8409576416016	689.9156494140626	-968.525085449219	-322.7774658203126	630.9555664062501	-975.8934326171877	-327.1020507812501	534.2131958007814	-969.9445800781252	-294.5339660644532	388.836395263672	-946.0770263671877	-348.9113769531251	356.1233520507813	-1006.981750488281	-314.5509948730469	346.7973327636719	-981.4147949218752	-327.6480102539063	264.7446289062501	-953.991638183594	-410.3486938476564	148.9561920166016	-993.7698364257815	-394.6033325195314	146.6423950195313	-913.8029785156252	-483.383514404297	119.819694519043	-952.273864746094	-272.7103576660157	62.7770233154297	-922.1484985351565	-269.2960815429688	62.86608123779298	-963.4782714843752	-313.7800292968751	51.65856170654298	-1020.934997558594	-240.0051879882813	761.1528930664064	-649.7312622070314	-293.3936157226563	676.7324829101564	-625.8721313476564	-335.7908325195313	518.2256469726564	-661.2823486328126	-300.6809082031251	338.3539733886719	-725.7083129882814	-354.3141479492188	257.3681335449219	-670.8479003906251	-321.6032104492188	256.0615234375001	-704.4585571289064	-332.1463012695313	215.855209350586	-746.8153686523439	-393.4070739746095	130.3583526611328	-705.2062988281251	-376.7836303710938	136.8051300048828	-779.0798339843752	-456.8572692871095	106.9127883911133	-755.5164794921876	-257.7384033203126	55.76341247558595	-776.216979980469	-250.0172576904297	54.82968521118165	-734.5885009765626	-294.7787780761719	51.21868896484376	-677.1202392578126	-303.5924072265626	807.5613403320315	-618.0820922851564	-263.7514953613282	758.0585327148439	-625.4910278320314	
